<svg xmlns="http://www.w3.org/2000/svg" width="176" height="38" xmlns:xlink="http://www.w3.org/1999/xlink" viewBox="0 0 176.392 38">
<g>
	<path style="fill:#1E83F0;" d="M41.767,0.052H9.74L0.807,11.894h31.81L41.767,0.052z"/>
	<path style="fill:#1E83F0;" d="M40.96,26.159H8.933L0,38h31.809L40.96,26.159z"/>
	<path style="fill:#1B66AA;" d="M9.786,0l17.992,11.894h-3.857L9.786,0z"/>
	<path style="fill:#1B66AA;" d="M31.781,37.948l-14.009-11.79h-3.941L31.781,37.948z"/>
	<path style="fill:#459AE5;" d="M9.74,0.052L0.861,11.821c-0.031,0.041-0.024,0.099,0.015,0.132L31.809,38
		l9.151-11.841L9.74,0.052z"/>
	<g >
		<path style="fill:#333333;" d="M59.23,30.97c-1.362,0-2.668-0.227-3.917-0.681c-1.249-0.454-2.339-1.135-3.27-2.044
			l0.851-1.158c0.954,0.863,1.941,1.499,2.963,1.907c1.022,0.409,2.146,0.613,3.372,0.613c1.544,0,2.787-0.324,3.729-0.971
			c0.942-0.647,1.413-1.55,1.413-2.708c0-0.545-0.119-1.005-0.358-1.379c-0.238-0.375-0.596-0.692-1.073-0.954
			c-0.477-0.261-1.068-0.494-1.771-0.698c-0.704-0.204-1.522-0.42-2.452-0.647c-0.999-0.227-1.868-0.454-2.605-0.681
			c-0.738-0.227-1.345-0.499-1.822-0.817c-0.477-0.318-0.834-0.704-1.073-1.158c-0.238-0.454-0.358-1.033-0.358-1.737
			c0-0.886,0.17-1.657,0.511-2.316c0.341-0.658,0.812-1.203,1.413-1.635c0.601-0.431,1.294-0.755,2.078-0.971
			c0.783-0.215,1.618-0.323,2.503-0.323c1.385,0,2.611,0.233,3.678,0.698c1.067,0.466,1.896,1.062,2.486,1.788l-0.954,0.92
			c-0.591-0.681-1.357-1.192-2.299-1.533c-0.942-0.341-1.947-0.511-3.014-0.511c-0.659,0-1.277,0.068-1.856,0.204
			c-0.579,0.136-1.085,0.352-1.516,0.647c-0.432,0.295-0.772,0.676-1.022,1.141c-0.25,0.466-0.375,1.016-0.375,1.652
			c0,0.523,0.085,0.942,0.255,1.26c0.17,0.318,0.443,0.591,0.817,0.818c0.375,0.227,0.857,0.426,1.447,0.596
			c0.59,0.17,1.294,0.358,2.112,0.562c1.112,0.273,2.1,0.534,2.963,0.783c0.863,0.25,1.584,0.557,2.163,0.92
			c0.579,0.364,1.022,0.795,1.328,1.294c0.306,0.5,0.46,1.136,0.46,1.907c0,1.59-0.619,2.856-1.856,3.798
			C62.948,30.499,61.296,30.97,59.23,30.97z"/>
		<path style="fill:#333333;" d="M78.235,29.778c-0.091,0.046-0.244,0.131-0.46,0.256
			c-0.216,0.125-0.489,0.244-0.817,0.358c-0.329,0.114-0.698,0.216-1.107,0.307c-0.409,0.09-0.851,0.136-1.328,0.136
			s-0.925-0.068-1.345-0.204c-0.421-0.136-0.789-0.341-1.107-0.613c-0.318-0.273-0.568-0.601-0.749-0.988
			c-0.182-0.386-0.272-0.84-0.272-1.362V14.316h-2.486v-1.396h2.486V6.857h1.703v6.063h4.121v1.396h-4.121v12.942
			c0,0.659,0.227,1.153,0.681,1.482c0.454,0.329,0.965,0.494,1.533,0.494c0.704,0,1.311-0.119,1.822-0.358
			c0.511-0.238,0.823-0.392,0.937-0.46L78.235,29.778z"/>
		<path style="fill:#333333;" d="M87.056,30.97c-3.769,0-5.654-2.611-5.654-7.833V12.919h1.703v9.979
			c0,4.36,1.487,6.539,4.462,6.539c0.749,0,1.476-0.13,2.18-0.392c0.704-0.261,1.362-0.624,1.975-1.09
			c0.613-0.465,1.152-1.027,1.618-1.686c0.465-0.658,0.834-1.385,1.107-2.18V12.919h1.703v15.327c0,0.568,0.238,0.851,0.715,0.851
			v1.533c-0.114,0.022-0.216,0.034-0.306,0.034c-0.091,0-0.159,0-0.204,0c-0.454,0-0.857-0.142-1.209-0.426
			c-0.352-0.284-0.528-0.664-0.528-1.141v-2.657c-0.772,1.43-1.834,2.543-3.185,3.338C90.081,30.573,88.623,30.97,87.056,30.97z"/>
		<path style="fill:#333333;" d="M109.194,30.97c-1.226,0-2.362-0.255-3.406-0.766
			c-1.045-0.511-1.947-1.192-2.708-2.044c-0.761-0.851-1.351-1.828-1.771-2.929c-0.42-1.101-0.63-2.242-0.63-3.423
			c0-1.226,0.204-2.395,0.613-3.508c0.409-1.112,0.976-2.089,1.703-2.929c0.727-0.84,1.584-1.51,2.572-2.01
			c0.988-0.499,2.072-0.749,3.253-0.749c0.772,0,1.499,0.114,2.18,0.341c0.681,0.227,1.317,0.528,1.907,0.903
			c0.59,0.375,1.124,0.812,1.601,1.311c0.477,0.5,0.886,1.033,1.226,1.601V5.767h1.703v22.479c0,0.568,0.238,0.851,0.715,0.851
			v1.533c-0.136,0.022-0.25,0.039-0.341,0.051c-0.091,0.011-0.182,0.017-0.273,0.017c-0.454,0-0.84-0.176-1.158-0.528
			c-0.318-0.352-0.477-0.721-0.477-1.107v-1.975c-0.727,1.181-1.698,2.123-2.912,2.827C111.777,30.619,110.511,30.97,109.194,30.97z
			 M109.501,29.438c0.613,0,1.271-0.125,1.975-0.375c0.704-0.25,1.357-0.596,1.958-1.039c0.601-0.443,1.118-0.948,1.55-1.516
			c0.431-0.567,0.681-1.18,0.749-1.839v-5.824c-0.25-0.635-0.608-1.243-1.073-1.822c-0.466-0.579-0.994-1.078-1.584-1.499
			c-0.591-0.42-1.226-0.755-1.907-1.005c-0.681-0.25-1.34-0.375-1.975-0.375c-1.022,0-1.953,0.221-2.793,0.664
			c-0.84,0.443-1.556,1.022-2.146,1.737c-0.591,0.715-1.045,1.533-1.362,2.452c-0.318,0.92-0.477,1.868-0.477,2.844
			c0,1.022,0.181,1.987,0.545,2.895c0.363,0.909,0.868,1.715,1.516,2.418c0.647,0.704,1.396,1.26,2.248,1.669
			C107.576,29.233,108.501,29.438,109.501,29.438z"/>
		<path style="fill:#333333;" d="M123.192,8.9V5.767h1.703V8.9H123.192z M123.192,30.63V12.919h1.703V30.63H123.192z
			"/>
		<path style="fill:#333333;" d="M134.942,30.97c-0.818,0-1.578-0.142-2.282-0.426
			c-0.704-0.284-1.323-0.669-1.856-1.158c-0.534-0.488-0.948-1.067-1.243-1.737c-0.295-0.669-0.443-1.391-0.443-2.163
			c0-0.772,0.182-1.476,0.545-2.112c0.363-0.635,0.868-1.186,1.516-1.652c0.647-0.465,1.425-0.829,2.333-1.09
			c0.908-0.261,1.907-0.392,2.997-0.392c0.954,0,1.913,0.085,2.878,0.256c0.965,0.17,1.833,0.403,2.605,0.698v-1.737
			c0-1.68-0.477-3.014-1.43-4.002c-0.954-0.988-2.248-1.482-3.883-1.482c-0.863,0-1.777,0.182-2.742,0.545
			c-0.965,0.364-1.947,0.886-2.946,1.567l-0.647-1.158c2.27-1.544,4.428-2.316,6.471-2.316c2.134,0,3.815,0.619,5.041,1.856
			c1.226,1.238,1.839,2.946,1.839,5.126v8.651c0,0.568,0.25,0.851,0.749,0.851v1.533c-0.114,0.022-0.233,0.039-0.358,0.051
			c-0.125,0.011-0.233,0.017-0.323,0.017c-0.454,0-0.818-0.153-1.09-0.46c-0.272-0.307-0.432-0.675-0.477-1.107v-1.465
			c-0.817,1.068-1.862,1.885-3.133,2.452C137.791,30.686,136.418,30.97,134.942,30.97z M135.283,29.608
			c1.317,0,2.526-0.25,3.627-0.749c1.101-0.499,1.947-1.158,2.537-1.975c0.363-0.477,0.545-0.931,0.545-1.362v-3.133
			c-0.817-0.318-1.669-0.556-2.554-0.715c-0.886-0.159-1.805-0.238-2.759-0.238c-0.885,0-1.692,0.097-2.418,0.29
			c-0.727,0.193-1.351,0.46-1.873,0.8c-0.523,0.341-0.925,0.755-1.209,1.243c-0.284,0.488-0.426,1.028-0.426,1.618
			c0,0.591,0.113,1.147,0.341,1.669c0.227,0.523,0.545,0.971,0.954,1.345c0.409,0.375,0.891,0.67,1.448,0.886
			C134.051,29.5,134.647,29.608,135.283,29.608z"/>
		<path style="fill:#333333;" d="M157.591,14.452c-1.59,0.046-2.98,0.517-4.172,1.413
			c-1.192,0.897-2.027,2.129-2.503,3.696V30.63h-1.703V12.919h1.635v4.36c0.613-1.248,1.425-2.265,2.435-3.048
			c1.01-0.783,2.095-1.231,3.253-1.345c0.227-0.022,0.431-0.034,0.613-0.034c0.181,0,0.329,0,0.443,0V14.452z"/>
		<path style="fill:#333333;" d="M167.809,30.97c-1.249,0-2.407-0.244-3.474-0.732
			c-1.068-0.488-1.992-1.158-2.776-2.01c-0.783-0.851-1.396-1.833-1.839-2.946c-0.443-1.112-0.664-2.304-0.664-3.576
			c0-1.248,0.221-2.423,0.664-3.525c0.443-1.101,1.05-2.066,1.822-2.895c0.772-0.829,1.686-1.482,2.742-1.958
			c1.056-0.477,2.197-0.715,3.423-0.715c1.248,0,2.406,0.244,3.474,0.732c1.067,0.489,1.987,1.147,2.759,1.975
			c0.772,0.829,1.374,1.794,1.805,2.895c0.431,1.102,0.647,2.265,0.647,3.491c0,0.114,0,0.256,0,0.426
			c0,0.17-0.012,0.278-0.034,0.324h-15.531c0.068,1.022,0.306,1.97,0.715,2.844c0.409,0.874,0.925,1.63,1.55,2.265
			c0.624,0.636,1.345,1.136,2.163,1.499c0.817,0.364,1.691,0.545,2.622,0.545c0.613,0,1.214-0.085,1.805-0.256
			c0.59-0.17,1.141-0.403,1.652-0.698c0.511-0.295,0.965-0.652,1.362-1.073c0.397-0.42,0.709-0.88,0.937-1.379l1.499,0.409
			c-0.25,0.636-0.619,1.221-1.107,1.754c-0.488,0.534-1.056,0.994-1.703,1.379c-0.647,0.386-1.357,0.687-2.129,0.903
			C169.421,30.862,168.626,30.97,167.809,30.97z M174.757,21.093c-0.068-1.044-0.301-1.998-0.698-2.861
			c-0.397-0.863-0.908-1.606-1.533-2.231c-0.625-0.624-1.345-1.112-2.163-1.465c-0.817-0.352-1.692-0.528-2.623-0.528
			c-0.931,0-1.805,0.176-2.622,0.528c-0.818,0.352-1.539,0.84-2.163,1.465c-0.625,0.625-1.124,1.374-1.499,2.248
			c-0.375,0.874-0.596,1.822-0.664,2.844H174.757z"/>
	</g>
</g>
</svg>
