<svg version="1.1" xmlns="http://www.w3.org/2000/svg" xmlns:xlink="http://www.w3.org/1999/xlink" viewBox="0 0 218 218" style="enable-background:new 0 0 218 218;" width="56px" height="56px" xml:space="preserve">
<path style="fill:#1E83F0;" d="M109.005,4.299c-37.7,0-68.27,30.56-68.27,68.26c0,12.88,3.57,24.92,9.77,35.2
	l0.12,0.21l58.38,105.15l56.63-102.43c7.34-10.89,11.63-24.01,11.63-38.13C177.265,34.858,146.705,4.299,109.005,4.299z
	 M109,108.289c-21.082,0-38.172-17.09-38.172-38.172c0-21.082,17.09-38.172,38.172-38.172c21.082,0,38.172,17.09,38.172,38.172
	C147.172,91.199,130.082,108.289,109,108.289z"/>
</svg>
